<mxfile host="app.diagrams.net" agent="Mozilla/5.0 (Windows NT 10.0; Win64; x64) AppleWebKit/537.36 (KHTML, like Gecko) Chrome/129.0.0.0 Safari/537.36" version="24.7.17">
  <diagram name="PÃ¡gina-1" id="bGgexlNiO9qkGiIbDRbb">
    <mxGraphModel dx="1419" dy="772" grid="1" gridSize="10" guides="1" tooltips="1" connect="1" arrows="1" fold="1" page="1" pageScale="1" pageWidth="827" pageHeight="1169" math="0" shadow="0">
      <root>
        <mxCell id="0" />
        <mxCell id="1" parent="0" />
        <mxCell id="rmTUJpJKBsn6YUa3M6Ba-1" value="cliente" style="whiteSpace=wrap;html=1;align=center;" vertex="1" parent="1">
          <mxGeometry x="304" y="460" width="100" height="40" as="geometry" />
        </mxCell>
        <mxCell id="rmTUJpJKBsn6YUa3M6Ba-2" value="cpf" style="ellipse;whiteSpace=wrap;html=1;align=center;" vertex="1" parent="1">
          <mxGeometry x="170" y="500" width="100" height="40" as="geometry" />
        </mxCell>
        <mxCell id="rmTUJpJKBsn6YUa3M6Ba-8" style="edgeStyle=orthogonalEdgeStyle;rounded=0;orthogonalLoop=1;jettySize=auto;html=1;entryX=0.25;entryY=1;entryDx=0;entryDy=0;endArrow=none;endFill=0;" edge="1" parent="1" source="rmTUJpJKBsn6YUa3M6Ba-3" target="rmTUJpJKBsn6YUa3M6Ba-1">
          <mxGeometry relative="1" as="geometry" />
        </mxCell>
        <mxCell id="rmTUJpJKBsn6YUa3M6Ba-3" value="rg" style="ellipse;whiteSpace=wrap;html=1;align=center;" vertex="1" parent="1">
          <mxGeometry x="140" y="545" width="100" height="40" as="geometry" />
        </mxCell>
        <mxCell id="rmTUJpJKBsn6YUa3M6Ba-9" style="edgeStyle=orthogonalEdgeStyle;rounded=0;orthogonalLoop=1;jettySize=auto;html=1;entryX=0.5;entryY=1;entryDx=0;entryDy=0;exitX=0.5;exitY=0;exitDx=0;exitDy=0;endArrow=none;endFill=0;" edge="1" parent="1" source="rmTUJpJKBsn6YUa3M6Ba-4" target="rmTUJpJKBsn6YUa3M6Ba-1">
          <mxGeometry relative="1" as="geometry">
            <mxPoint x="380" y="670" as="sourcePoint" />
          </mxGeometry>
        </mxCell>
        <mxCell id="rmTUJpJKBsn6YUa3M6Ba-4" value="nome" style="ellipse;whiteSpace=wrap;html=1;align=center;" vertex="1" parent="1">
          <mxGeometry x="280" y="650" width="100" height="40" as="geometry" />
        </mxCell>
        <mxCell id="rmTUJpJKBsn6YUa3M6Ba-10" style="edgeStyle=orthogonalEdgeStyle;rounded=0;orthogonalLoop=1;jettySize=auto;html=1;entryX=0.75;entryY=1;entryDx=0;entryDy=0;endArrow=none;endFill=0;" edge="1" parent="1" source="rmTUJpJKBsn6YUa3M6Ba-5" target="rmTUJpJKBsn6YUa3M6Ba-1">
          <mxGeometry relative="1" as="geometry" />
        </mxCell>
        <mxCell id="rmTUJpJKBsn6YUa3M6Ba-5" value="endereco" style="ellipse;whiteSpace=wrap;html=1;align=center;" vertex="1" parent="1">
          <mxGeometry x="414" y="600" width="100" height="40" as="geometry" />
        </mxCell>
        <mxCell id="rmTUJpJKBsn6YUa3M6Ba-11" style="edgeStyle=orthogonalEdgeStyle;rounded=0;orthogonalLoop=1;jettySize=auto;html=1;entryX=1;entryY=1;entryDx=0;entryDy=0;endArrow=none;endFill=0;" edge="1" parent="1" source="rmTUJpJKBsn6YUa3M6Ba-6" target="rmTUJpJKBsn6YUa3M6Ba-1">
          <mxGeometry relative="1" as="geometry" />
        </mxCell>
        <mxCell id="rmTUJpJKBsn6YUa3M6Ba-6" value="telefone" style="ellipse;whiteSpace=wrap;html=1;align=center;" vertex="1" parent="1">
          <mxGeometry x="450" y="545" width="100" height="40" as="geometry" />
        </mxCell>
        <mxCell id="rmTUJpJKBsn6YUa3M6Ba-7" style="edgeStyle=orthogonalEdgeStyle;rounded=0;orthogonalLoop=1;jettySize=auto;html=1;entryX=0;entryY=1;entryDx=0;entryDy=0;endArrow=none;endFill=0;" edge="1" parent="1" source="rmTUJpJKBsn6YUa3M6Ba-2" target="rmTUJpJKBsn6YUa3M6Ba-1">
          <mxGeometry relative="1" as="geometry" />
        </mxCell>
        <mxCell id="rmTUJpJKBsn6YUa3M6Ba-20" style="edgeStyle=orthogonalEdgeStyle;rounded=0;orthogonalLoop=1;jettySize=auto;html=1;entryX=0.25;entryY=0;entryDx=0;entryDy=0;endArrow=none;endFill=0;" edge="1" parent="1" source="rmTUJpJKBsn6YUa3M6Ba-13" target="rmTUJpJKBsn6YUa3M6Ba-40">
          <mxGeometry relative="1" as="geometry">
            <mxPoint x="355" y="230" as="targetPoint" />
            <Array as="points">
              <mxPoint x="500" y="140" />
            </Array>
          </mxGeometry>
        </mxCell>
        <mxCell id="rmTUJpJKBsn6YUa3M6Ba-13" value="preco" style="ellipse;whiteSpace=wrap;html=1;align=center;" vertex="1" parent="1">
          <mxGeometry x="314" y="120" width="100" height="40" as="geometry" />
        </mxCell>
        <mxCell id="rmTUJpJKBsn6YUa3M6Ba-14" value="nome_prod" style="ellipse;whiteSpace=wrap;html=1;align=center;" vertex="1" parent="1">
          <mxGeometry x="474" y="80" width="100" height="40" as="geometry" />
        </mxCell>
        <mxCell id="rmTUJpJKBsn6YUa3M6Ba-21" style="edgeStyle=orthogonalEdgeStyle;rounded=0;orthogonalLoop=1;jettySize=auto;html=1;entryX=0.75;entryY=0;entryDx=0;entryDy=0;endArrow=none;endFill=0;" edge="1" parent="1" source="rmTUJpJKBsn6YUa3M6Ba-15" target="rmTUJpJKBsn6YUa3M6Ba-40">
          <mxGeometry relative="1" as="geometry">
            <mxPoint x="405" y="230" as="targetPoint" />
          </mxGeometry>
        </mxCell>
        <mxCell id="rmTUJpJKBsn6YUa3M6Ba-15" value="quantidade" style="ellipse;whiteSpace=wrap;html=1;align=center;" vertex="1" parent="1">
          <mxGeometry x="630" y="120" width="100" height="40" as="geometry" />
        </mxCell>
        <mxCell id="rmTUJpJKBsn6YUa3M6Ba-19" style="edgeStyle=orthogonalEdgeStyle;rounded=0;orthogonalLoop=1;jettySize=auto;html=1;entryX=0.5;entryY=1;entryDx=0;entryDy=0;exitX=0.5;exitY=0;exitDx=0;exitDy=0;endArrow=none;endFill=0;" edge="1" parent="1" source="rmTUJpJKBsn6YUa3M6Ba-40" target="rmTUJpJKBsn6YUa3M6Ba-14">
          <mxGeometry relative="1" as="geometry">
            <mxPoint x="380" y="230" as="sourcePoint" />
          </mxGeometry>
        </mxCell>
        <mxCell id="rmTUJpJKBsn6YUa3M6Ba-33" style="edgeStyle=orthogonalEdgeStyle;rounded=0;orthogonalLoop=1;jettySize=auto;html=1;entryX=0.5;entryY=0;entryDx=0;entryDy=0;exitX=0.5;exitY=1;exitDx=0;exitDy=0;endArrow=none;endFill=0;" edge="1" parent="1" source="rmTUJpJKBsn6YUa3M6Ba-34" target="rmTUJpJKBsn6YUa3M6Ba-31">
          <mxGeometry relative="1" as="geometry">
            <mxPoint x="770" y="390" as="sourcePoint" />
          </mxGeometry>
        </mxCell>
        <mxCell id="rmTUJpJKBsn6YUa3M6Ba-31" value="cod" style="ellipse;whiteSpace=wrap;html=1;align=center;fontStyle=4;" vertex="1" parent="1">
          <mxGeometry x="630" y="590" width="100" height="40" as="geometry" />
        </mxCell>
        <mxCell id="rmTUJpJKBsn6YUa3M6Ba-36" style="edgeStyle=orthogonalEdgeStyle;rounded=0;orthogonalLoop=1;jettySize=auto;html=1;entryX=0.5;entryY=1;entryDx=0;entryDy=0;exitX=0.5;exitY=0;exitDx=0;exitDy=0;endArrow=none;endFill=0;" edge="1" parent="1" source="rmTUJpJKBsn6YUa3M6Ba-34" target="rmTUJpJKBsn6YUa3M6Ba-41">
          <mxGeometry relative="1" as="geometry">
            <mxPoint x="790" y="280" as="targetPoint" />
          </mxGeometry>
        </mxCell>
        <mxCell id="rmTUJpJKBsn6YUa3M6Ba-34" value="tipo" style="whiteSpace=wrap;html=1;align=center;" vertex="1" parent="1">
          <mxGeometry x="630" y="460" width="100" height="40" as="geometry" />
        </mxCell>
        <mxCell id="rmTUJpJKBsn6YUa3M6Ba-40" value="produto" style="whiteSpace=wrap;html=1;align=center;" vertex="1" parent="1">
          <mxGeometry x="474" y="220" width="100" height="40" as="geometry" />
        </mxCell>
        <mxCell id="rmTUJpJKBsn6YUa3M6Ba-42" style="edgeStyle=orthogonalEdgeStyle;rounded=0;orthogonalLoop=1;jettySize=auto;html=1;entryX=1;entryY=0.5;entryDx=0;entryDy=0;endArrow=none;endFill=0;exitX=0.5;exitY=0;exitDx=0;exitDy=0;" edge="1" parent="1" source="rmTUJpJKBsn6YUa3M6Ba-41" target="rmTUJpJKBsn6YUa3M6Ba-40">
          <mxGeometry relative="1" as="geometry" />
        </mxCell>
        <mxCell id="rmTUJpJKBsn6YUa3M6Ba-41" value="tem" style="shape=rhombus;perimeter=rhombusPerimeter;whiteSpace=wrap;html=1;align=center;" vertex="1" parent="1">
          <mxGeometry x="620" y="300" width="120" height="60" as="geometry" />
        </mxCell>
        <mxCell id="rmTUJpJKBsn6YUa3M6Ba-47" value="compra cliente" style="whiteSpace=wrap;html=1;align=center;" vertex="1" parent="1">
          <mxGeometry x="140" y="350" width="100" height="40" as="geometry" />
        </mxCell>
        <mxCell id="rmTUJpJKBsn6YUa3M6Ba-52" style="edgeStyle=orthogonalEdgeStyle;rounded=0;orthogonalLoop=1;jettySize=auto;html=1;entryX=0;entryY=0.5;entryDx=0;entryDy=0;endArrow=none;endFill=0;" edge="1" parent="1" source="rmTUJpJKBsn6YUa3M6Ba-48" target="rmTUJpJKBsn6YUa3M6Ba-47">
          <mxGeometry relative="1" as="geometry" />
        </mxCell>
        <mxCell id="rmTUJpJKBsn6YUa3M6Ba-48" value="num_compra" style="ellipse;whiteSpace=wrap;html=1;align=center;" vertex="1" parent="1">
          <mxGeometry x="10" y="360" width="100" height="40" as="geometry" />
        </mxCell>
        <mxCell id="rmTUJpJKBsn6YUa3M6Ba-51" style="edgeStyle=orthogonalEdgeStyle;rounded=0;orthogonalLoop=1;jettySize=auto;html=1;entryX=0.25;entryY=0;entryDx=0;entryDy=0;endArrow=none;endFill=0;" edge="1" parent="1" source="rmTUJpJKBsn6YUa3M6Ba-49" target="rmTUJpJKBsn6YUa3M6Ba-47">
          <mxGeometry relative="1" as="geometry" />
        </mxCell>
        <mxCell id="rmTUJpJKBsn6YUa3M6Ba-49" value="produto_comprado" style="ellipse;whiteSpace=wrap;html=1;align=center;" vertex="1" parent="1">
          <mxGeometry x="50" y="280" width="100" height="40" as="geometry" />
        </mxCell>
        <mxCell id="rmTUJpJKBsn6YUa3M6Ba-53" style="rounded=0;orthogonalLoop=1;jettySize=auto;html=1;entryX=0.5;entryY=1;entryDx=0;entryDy=0;endArrow=none;endFill=0;" edge="1" parent="1" source="rmTUJpJKBsn6YUa3M6Ba-50" target="rmTUJpJKBsn6YUa3M6Ba-47">
          <mxGeometry relative="1" as="geometry" />
        </mxCell>
        <mxCell id="rmTUJpJKBsn6YUa3M6Ba-50" value="valor_total" style="ellipse;whiteSpace=wrap;html=1;align=center;dashed=1;" vertex="1" parent="1">
          <mxGeometry x="60" y="440" width="100" height="40" as="geometry" />
        </mxCell>
        <mxCell id="rmTUJpJKBsn6YUa3M6Ba-57" style="edgeStyle=orthogonalEdgeStyle;rounded=0;orthogonalLoop=1;jettySize=auto;html=1;entryX=0.5;entryY=0;entryDx=0;entryDy=0;endArrow=none;endFill=0;" edge="1" parent="1" source="rmTUJpJKBsn6YUa3M6Ba-56" target="rmTUJpJKBsn6YUa3M6Ba-1">
          <mxGeometry relative="1" as="geometry">
            <mxPoint x="410" y="470" as="targetPoint" />
          </mxGeometry>
        </mxCell>
        <mxCell id="rmTUJpJKBsn6YUa3M6Ba-58" style="edgeStyle=orthogonalEdgeStyle;rounded=0;orthogonalLoop=1;jettySize=auto;html=1;entryX=1;entryY=0.5;entryDx=0;entryDy=0;endArrow=none;endFill=0;" edge="1" parent="1" source="rmTUJpJKBsn6YUa3M6Ba-56" target="rmTUJpJKBsn6YUa3M6Ba-47">
          <mxGeometry relative="1" as="geometry" />
        </mxCell>
        <mxCell id="rmTUJpJKBsn6YUa3M6Ba-56" value="FAZ" style="shape=rhombus;perimeter=rhombusPerimeter;whiteSpace=wrap;html=1;align=center;" vertex="1" parent="1">
          <mxGeometry x="294" y="340" width="120" height="60" as="geometry" />
        </mxCell>
        <mxCell id="rmTUJpJKBsn6YUa3M6Ba-61" style="edgeStyle=none;shape=link;rounded=0;orthogonalLoop=1;jettySize=auto;html=1;entryX=1;entryY=0.5;entryDx=0;entryDy=0;strokeColor=default;align=center;verticalAlign=middle;fontFamily=Helvetica;fontSize=11;fontColor=default;labelBackgroundColor=default;endArrow=none;endFill=0;" edge="1" parent="1" source="rmTUJpJKBsn6YUa3M6Ba-59" target="rmTUJpJKBsn6YUa3M6Ba-60">
          <mxGeometry relative="1" as="geometry" />
        </mxCell>
        <mxCell id="rmTUJpJKBsn6YUa3M6Ba-59" value="ITEM" style="shape=ext;margin=3;double=1;whiteSpace=wrap;html=1;align=center;fontFamily=Helvetica;fontSize=11;fontColor=default;labelBackgroundColor=default;" vertex="1" parent="1">
          <mxGeometry x="340" y="220" width="100" height="40" as="geometry" />
        </mxCell>
        <mxCell id="rmTUJpJKBsn6YUa3M6Ba-60" value="TEM" style="shape=rhombus;double=1;perimeter=rhombusPerimeter;whiteSpace=wrap;html=1;align=center;fontFamily=Helvetica;fontSize=11;fontColor=default;labelBackgroundColor=default;" vertex="1" parent="1">
          <mxGeometry x="140" y="210" width="120" height="60" as="geometry" />
        </mxCell>
        <mxCell id="rmTUJpJKBsn6YUa3M6Ba-62" style="edgeStyle=none;shape=connector;rounded=0;orthogonalLoop=1;jettySize=auto;html=1;entryX=0.417;entryY=0.867;entryDx=0;entryDy=0;entryPerimeter=0;strokeColor=default;align=center;verticalAlign=middle;fontFamily=Helvetica;fontSize=11;fontColor=default;labelBackgroundColor=default;endArrow=none;endFill=0;" edge="1" parent="1" source="rmTUJpJKBsn6YUa3M6Ba-47" target="rmTUJpJKBsn6YUa3M6Ba-60">
          <mxGeometry relative="1" as="geometry" />
        </mxCell>
        <mxCell id="rmTUJpJKBsn6YUa3M6Ba-65" style="edgeStyle=none;shape=connector;rounded=0;orthogonalLoop=1;jettySize=auto;html=1;strokeColor=default;align=center;verticalAlign=middle;fontFamily=Helvetica;fontSize=11;fontColor=default;labelBackgroundColor=default;endArrow=none;endFill=0;" edge="1" parent="1" source="rmTUJpJKBsn6YUa3M6Ba-63" target="rmTUJpJKBsn6YUa3M6Ba-40">
          <mxGeometry relative="1" as="geometry" />
        </mxCell>
        <mxCell id="rmTUJpJKBsn6YUa3M6Ba-63" value="TEM" style="shape=rhombus;perimeter=rhombusPerimeter;whiteSpace=wrap;html=1;align=center;fontFamily=Helvetica;fontSize=11;fontColor=default;labelBackgroundColor=default;" vertex="1" parent="1">
          <mxGeometry x="464" y="340" width="120" height="60" as="geometry" />
        </mxCell>
        <mxCell id="rmTUJpJKBsn6YUa3M6Ba-64" style="edgeStyle=none;shape=link;rounded=0;orthogonalLoop=1;jettySize=auto;html=1;entryX=0;entryY=0;entryDx=0;entryDy=0;strokeColor=default;align=center;verticalAlign=middle;fontFamily=Helvetica;fontSize=11;fontColor=default;labelBackgroundColor=default;endArrow=none;endFill=0;" edge="1" parent="1" source="rmTUJpJKBsn6YUa3M6Ba-59" target="rmTUJpJKBsn6YUa3M6Ba-63">
          <mxGeometry relative="1" as="geometry" />
        </mxCell>
      </root>
    </mxGraphModel>
  </diagram>
</mxfile>
